<?xml version="1.0" standalone="no"?><!-- Generator: Gravit.io --><svg xmlns="http://www.w3.org/2000/svg" xmlns:xlink="http://www.w3.org/1999/xlink" style="isolation:isolate" viewBox="1106.5 1242.75 3784.5 3520.375" width="3784.5" height="3520.375"><g><g><path d=" M 3883.532 2581.058 C 4290.907 2691.139 4591 3063.582 4591 3505.563 C 4591 4034.056 4161.931 4463.125 3633.438 4463.125 C 3296.347 4463.125 2999.705 4288.566 2829.054 4024.987 C 2771.775 4033.075 2713.246 4037.25 2653.75 4037.25 C 1965.374 4037.25 1406.5 3478.376 1406.5 2790 C 1406.5 2101.624 1965.374 1542.75 2653.75 1542.75 C 3270.934 1542.75 3784.017 1992.004 3883.532 2581.058 Z " fill-rule="evenodd" fill="rgb(159,56,55)" vector-effect="non-scaling-stroke" stroke-width="200" stroke="rgb(210,96,94)" stroke-linejoin="miter" stroke-linecap="square" stroke-miterlimit="3"/><path d=" M 2185 3946 L 3271 4392 L 4370 2894 L 3604 1983 L 2185 3946 Z " fill="rgb(159,56,55)" vector-effect="non-scaling-stroke" stroke-width="189" stroke="rgb(210,96,94)" stroke-linejoin="miter" stroke-linecap="square" stroke-miterlimit="3"/></g><g><path d=" M 3883.532 2581.058 C 4290.907 2691.139 4591 3063.582 4591 3505.563 C 4591 4034.056 4161.931 4463.125 3633.438 4463.125 C 3296.347 4463.125 2999.705 4288.566 2829.054 4024.987 C 2771.775 4033.075 2713.246 4037.25 2653.75 4037.25 C 1965.374 4037.25 1406.5 3478.376 1406.5 2790 C 1406.5 2101.624 1965.374 1542.75 2653.75 1542.75 C 3270.934 1542.75 3784.017 1992.004 3883.532 2581.058 Z " fill-rule="evenodd" fill="rgb(159,56,55)"/><path d=" M 2185 3946 L 3271 4392 L 4370 2894 L 3604 1983 L 2185 3946 Z " fill="rgb(159,56,55)"/></g></g><path d=" M 2908 1841.572 L 2908 1841 L 2908 1780.76 C 2908 1694.794 2838.206 1625 2752.24 1625 L 2591.76 1625 L 2591.76 1625 L 2591.76 1625 L 2591.76 1625 L 2591.76 1625 L 2591.76 1625 L 2591.76 1625 L 2591.76 1625 C 2505.794 1625 2436 1694.794 2436 1780.76 L 2436 1843.608 C 2425.962 1895.621 2211.094 1987.318 2169.267 1952.65 L 2125.804 1909.13 C 2065.056 1848.304 1966.353 1848.24 1905.526 1908.989 L 1791.976 2022.392 C 1731.15 2083.14 1731.086 2181.843 1791.835 2242.67 L 1836.404 2287.296 C 1852.975 2308.28 1837.773 2376.731 1811.673 2439.075 C 1811.603 2439.219 1811.541 2439.367 1811.487 2439.52 C 1787.295 2497.117 1753.833 2549.388 1727.576 2554 L 1662.76 2554 C 1576.794 2554 1507 2623.794 1507 2709.76 L 1507 2870.24 L 1507 2870.24 L 1507 2870.24 L 1507 2870.24 L 1507 2870.24 L 1507 2870.24 L 1507 2870.24 C 1507 2956.206 1576.794 3026 1662.76 3026 L 1723.674 3026 C 1774.028 3029.155 1866.298 3240.849 1837.409 3289.978 L 1791.13 3336.196 C 1730.304 3396.944 1730.24 3495.647 1790.989 3556.474 L 1904.392 3670.024 L 1904.392 3670.024 L 1904.392 3670.024 L 1904.392 3670.024 L 1904.392 3670.024 C 1965.14 3730.85 2063.843 3730.914 2124.67 3670.165 L 2171.081 3623.814 Q 2169.349 3625.64 2167.656 3627.44 C 2185.16 3608.901 2250.847 3622.116 2312.918 3646.931 C 2316.853 3648.603 2320.81 3650.233 2324.783 3651.832 C 2380.088 3675.413 2429.764 3707.354 2436 3732.911 L 2436 3799.24 C 2436 3885.206 2505.794 3955 2591.76 3955 L 2752.24 3955 C 2838.206 3955 2908 3885.206 2908 3799.24 L 2908 3728.442 Q 2908.126 3734.342 2908.299 3740 C 2906.871 3690.254 3120.794 3596.248 3171.657 3624.27 L 3218.196 3670.87 C 3278.944 3731.696 3377.647 3731.76 3438.474 3671.011 L 3552.024 3557.608 L 3552.024 3557.608 L 3552.024 3557.608 C 3612.85 3496.86 3612.914 3398.157 3552.165 3337.33 L 3500.422 3285.52 Q 3505.326 3290.23 3510.048 3294.672 C 3473.285 3259.962 3561.39 3035.781 3617.08 3026 L 3681.24 3026 C 3767.206 3026 3837 2956.206 3837 2870.24 L 3837 2709.76 C 3837 2623.794 3767.206 2554 3681.24 2554 L 3620.982 2554 C 3569.962 2550.803 3475.907 2333.509 3508.459 2288.157 L 3552.87 2243.804 C 3613.696 2183.056 3613.76 2084.353 3553.011 2023.526 L 3439.608 1909.976 C 3378.86 1849.15 3280.157 1849.086 3219.33 1909.835 L 3175.222 1953.886 Q 3176.116 1952.939 3177 1952 C 3141.576 1989.519 2908.802 1896.979 2908 1841.572 Z " fill-rule="evenodd" fill="rgb(204,206,210)"/><circle vector-effect="non-scaling-stroke" cx="2671.9999999999995" cy="2790" r="597" fill="rgb(159,56,55)"/><circle vector-effect="non-scaling-stroke" cx="2672" cy="2789.9999999999995" r="527" fill="rgb(204,206,210)"/><circle vector-effect="non-scaling-stroke" cx="2672" cy="2790" r="413.81082683036584" fill="rgb(159,56,55)"/><path d="M 3266.158 2704 L 3937.842 2704 C 4182.979 2704 4382 2903.021 4382 3148.158 L 4382 3872.842 C 4382 4117.979 4182.979 4317 3937.842 4317 L 3266.158 4317 C 3021.021 4317 2822 4117.979 2822 3872.842 L 2822 3148.158 C 2822 2903.021 3021.021 2704 3266.158 2704 Z" style="stroke:none;fill:#9F3837;stroke-miterlimit:10;"/><path d="M 3227.855 3016 L 4029.145 3016 C 4074.322 3016 4111 3052.678 4111 3097.855 L 4111 3897.145 C 4111 3942.322 4074.322 3979 4029.145 3979 L 3227.855 3979 C 3182.678 3979 3146 3942.322 3146 3897.145 L 3146 3097.855 C 3146 3052.678 3182.678 3016 3227.855 3016 Z" style="stroke:none;fill:#0D0D0D;stroke-miterlimit:10;"/><g><defs><filter id="li7NZVQXULh2BwQLil2hQ7jFH0bxGhqi" x="-200%" y="-200%" width="400%" height="400%" filterUnits="objectBoundingBox" color-interpolation-filters="sRGB"><feGaussianBlur xmlns="http://www.w3.org/2000/svg" in="SourceGraphic" stdDeviation="2.146804531419514"/><feOffset xmlns="http://www.w3.org/2000/svg" dx="0" dy="0" result="pf_100_offsetBlur"/><feFlood xmlns="http://www.w3.org/2000/svg" flood-color="#000000" flood-opacity="0.65"/><feComposite xmlns="http://www.w3.org/2000/svg" in2="pf_100_offsetBlur" operator="in" result="pf_100_dropShadow"/><feBlend xmlns="http://www.w3.org/2000/svg" in="SourceGraphic" in2="pf_100_dropShadow" mode="normal"/></filter></defs><g filter="url(#li7NZVQXULh2BwQLil2hQ7jFH0bxGhqi)"><path d=" M 3012.116 3956 L 3012.116 3956 C 3020.138 3975.084 3039.015 3988.5 3061 3988.5 C 3090.251 3988.5 3114 3964.751 3114 3935.5 C 3114 3906.249 3090.251 3882.5 3061 3882.5 C 3039.015 3882.5 3020.138 3895.916 3012.116 3915 L 2895.5 3915 C 2884.186 3915 2875 3924.186 2875 3935.5 L 2875 3935.5 C 2875 3946.814 2884.186 3956 2895.5 3956 L 3012.116 3956 Z  M 3012.116 3810 L 3012.116 3810 C 3020.138 3829.084 3039.015 3842.5 3061 3842.5 C 3090.251 3842.5 3114 3818.751 3114 3789.5 C 3114 3760.249 3090.251 3736.5 3061 3736.5 C 3039.015 3736.5 3020.138 3749.916 3012.116 3769 L 2895.5 3769 C 2884.186 3769 2875 3778.186 2875 3789.5 L 2875 3789.5 C 2875 3800.814 2884.186 3810 2895.5 3810 L 3012.116 3810 L 3012.116 3810 L 3012.116 3810 Z  M 3012.116 3664 L 3012.116 3664 C 3020.138 3683.084 3039.015 3696.5 3061 3696.5 C 3090.251 3696.5 3114 3672.751 3114 3643.5 C 3114 3614.249 3090.251 3590.5 3061 3590.5 C 3039.015 3590.5 3020.138 3603.916 3012.116 3623 L 2895.5 3623 C 2884.186 3623 2875 3632.186 2875 3643.5 L 2875 3643.5 C 2875 3654.814 2884.186 3664 2895.5 3664 L 3012.116 3664 L 3012.116 3664 L 3012.116 3664 L 3012.116 3664 L 3012.116 3664 Z  M 3012.116 3518 L 3012.116 3518 C 3020.138 3537.084 3039.015 3550.5 3061 3550.5 C 3090.251 3550.5 3114 3526.751 3114 3497.5 C 3114 3468.249 3090.251 3444.5 3061 3444.5 C 3039.015 3444.5 3020.138 3457.916 3012.116 3477 L 2895.5 3477 C 2884.186 3477 2875 3486.186 2875 3497.5 L 2875 3497.5 C 2875 3508.814 2884.186 3518 2895.5 3518 L 3012.116 3518 L 3012.116 3518 L 3012.116 3518 L 3012.116 3518 L 3012.116 3518 L 3012.116 3518 L 3012.116 3518 Z  M 3012.116 3372 L 3012.116 3372 C 3020.138 3391.084 3039.015 3404.5 3061 3404.5 C 3090.251 3404.5 3114 3380.751 3114 3351.5 C 3114 3322.249 3090.251 3298.5 3061 3298.5 C 3039.015 3298.5 3020.138 3311.916 3012.116 3331 L 2895.5 3331 C 2884.186 3331 2875 3340.186 2875 3351.5 L 2875 3351.5 C 2875 3362.814 2884.186 3372 2895.5 3372 L 3012.116 3372 L 3012.116 3372 L 3012.116 3372 L 3012.116 3372 L 3012.116 3372 L 3012.116 3372 L 3012.116 3372 L 3012.116 3372 L 3012.116 3372 Z  M 3012.116 3226 L 3012.116 3226 C 3020.138 3245.084 3039.015 3258.5 3061 3258.5 C 3090.251 3258.5 3114 3234.751 3114 3205.5 C 3114 3176.249 3090.251 3152.5 3061 3152.5 C 3039.015 3152.5 3020.138 3165.916 3012.116 3185 L 2895.5 3185 C 2884.186 3185 2875 3194.186 2875 3205.5 L 2875 3205.5 C 2875 3216.814 2884.186 3226 2895.5 3226 L 3012.116 3226 L 3012.116 3226 L 3012.116 3226 L 3012.116 3226 L 3012.116 3226 L 3012.116 3226 L 3012.116 3226 L 3012.116 3226 L 3012.116 3226 L 3012.116 3226 L 3012.116 3226 Z  M 3012.116 3039 C 3020.138 3019.916 3039.015 3006.5 3061 3006.5 C 3090.251 3006.5 3114 3030.249 3114 3059.5 C 3114 3088.751 3090.251 3112.5 3061 3112.5 C 3039.015 3112.5 3020.138 3099.084 3012.116 3080 L 2895.5 3080 C 2884.186 3080 2875 3070.814 2875 3059.5 L 2875 3059.5 C 2875 3048.186 2884.186 3039 2895.5 3039 L 3012.116 3039 L 3012.116 3039 L 3012.116 3039 L 3012.116 3039 L 3012.116 3039 L 3012.116 3039 L 3012.116 3039 L 3012.116 3039 L 3012.116 3039 L 3012.116 3039 L 3012.116 3039 L 3012.116 3039 Z " fill-rule="evenodd" fill="rgb(204,206,210)"/></g><defs><filter id="1DumJ8wJXNdiqpRhquDg3hf8xcm67WUr" x="-200%" y="-200%" width="400%" height="400%" filterUnits="objectBoundingBox" color-interpolation-filters="sRGB"><feGaussianBlur xmlns="http://www.w3.org/2000/svg" in="SourceGraphic" stdDeviation="2.146804531419514"/><feOffset xmlns="http://www.w3.org/2000/svg" dx="0" dy="0" result="pf_100_offsetBlur"/><feFlood xmlns="http://www.w3.org/2000/svg" flood-color="#000000" flood-opacity="0.65"/><feComposite xmlns="http://www.w3.org/2000/svg" in2="pf_100_offsetBlur" operator="in" result="pf_100_dropShadow"/><feBlend xmlns="http://www.w3.org/2000/svg" in="SourceGraphic" in2="pf_100_dropShadow" mode="normal"/></filter></defs><g filter="url(#1DumJ8wJXNdiqpRhquDg3hf8xcm67WUr)"><path d=" M 4244.884 3039 L 4244.884 3039 C 4236.862 3019.916 4217.985 3006.5 4196 3006.5 C 4166.749 3006.5 4143 3030.249 4143 3059.5 C 4143 3088.751 4166.749 3112.5 4196 3112.5 C 4217.985 3112.5 4236.862 3099.084 4244.884 3080 L 4361.5 3080 C 4372.814 3080 4382 3070.814 4382 3059.5 L 4382 3059.5 C 4382 3048.186 4372.814 3039 4361.5 3039 L 4244.884 3039 Z  M 4244.884 3185 L 4244.884 3185 C 4236.862 3165.916 4217.985 3152.5 4196 3152.5 C 4166.749 3152.5 4143 3176.249 4143 3205.5 C 4143 3234.751 4166.749 3258.5 4196 3258.5 C 4217.985 3258.5 4236.862 3245.084 4244.884 3226 L 4361.5 3226 C 4372.814 3226 4382 3216.814 4382 3205.5 L 4382 3205.5 C 4382 3194.186 4372.814 3185 4361.5 3185 L 4244.884 3185 L 4244.884 3185 L 4244.884 3185 Z  M 4244.884 3331 L 4244.884 3331 C 4236.862 3311.916 4217.985 3298.5 4196 3298.5 C 4166.749 3298.5 4143 3322.249 4143 3351.5 C 4143 3380.751 4166.749 3404.5 4196 3404.5 C 4217.985 3404.5 4236.862 3391.084 4244.884 3372 L 4361.5 3372 C 4372.814 3372 4382 3362.814 4382 3351.5 L 4382 3351.5 C 4382 3340.186 4372.814 3331 4361.5 3331 L 4244.884 3331 L 4244.884 3331 L 4244.884 3331 L 4244.884 3331 L 4244.884 3331 Z  M 4244.884 3477 L 4244.884 3477 C 4236.862 3457.916 4217.985 3444.5 4196 3444.5 C 4166.749 3444.5 4143 3468.249 4143 3497.5 C 4143 3526.751 4166.749 3550.5 4196 3550.5 C 4217.985 3550.5 4236.862 3537.084 4244.884 3518 L 4361.5 3518 C 4372.814 3518 4382 3508.814 4382 3497.5 L 4382 3497.5 C 4382 3486.186 4372.814 3477 4361.5 3477 L 4244.884 3477 L 4244.884 3477 L 4244.884 3477 L 4244.884 3477 L 4244.884 3477 L 4244.884 3477 L 4244.884 3477 Z  M 4244.884 3623 L 4244.884 3623 C 4236.862 3603.916 4217.985 3590.5 4196 3590.5 C 4166.749 3590.5 4143 3614.249 4143 3643.5 C 4143 3672.751 4166.749 3696.5 4196 3696.5 C 4217.985 3696.5 4236.862 3683.084 4244.884 3664 L 4361.5 3664 C 4372.814 3664 4382 3654.814 4382 3643.5 L 4382 3643.5 C 4382 3632.186 4372.814 3623 4361.5 3623 L 4244.884 3623 L 4244.884 3623 L 4244.884 3623 L 4244.884 3623 L 4244.884 3623 L 4244.884 3623 L 4244.884 3623 L 4244.884 3623 L 4244.884 3623 Z  M 4244.884 3769 L 4244.884 3769 C 4236.862 3749.916 4217.985 3736.5 4196 3736.5 C 4166.749 3736.5 4143 3760.249 4143 3789.5 C 4143 3818.751 4166.749 3842.5 4196 3842.5 C 4217.985 3842.5 4236.862 3829.084 4244.884 3810 L 4361.5 3810 C 4372.814 3810 4382 3800.814 4382 3789.5 L 4382 3789.5 C 4382 3778.186 4372.814 3769 4361.5 3769 L 4244.884 3769 L 4244.884 3769 L 4244.884 3769 L 4244.884 3769 L 4244.884 3769 L 4244.884 3769 L 4244.884 3769 L 4244.884 3769 L 4244.884 3769 L 4244.884 3769 L 4244.884 3769 Z  M 4244.884 3956 C 4236.862 3975.084 4217.985 3988.5 4196 3988.5 C 4166.749 3988.5 4143 3964.751 4143 3935.5 C 4143 3906.249 4166.749 3882.5 4196 3882.5 C 4217.985 3882.5 4236.862 3895.916 4244.884 3915 L 4361.5 3915 C 4372.814 3915 4382 3924.186 4382 3935.5 L 4382 3935.5 C 4382 3946.814 4372.814 3956 4361.5 3956 L 4244.884 3956 L 4244.884 3956 L 4244.884 3956 L 4244.884 3956 L 4244.884 3956 L 4244.884 3956 L 4244.884 3956 L 4244.884 3956 L 4244.884 3956 L 4244.884 3956 L 4244.884 3956 L 4244.884 3956 Z " fill-rule="evenodd" fill="rgb(204,206,210)"/></g><defs><filter id="iB4uuHPPetcxRcHMVY5tDdnJC0WFl3re" x="-200%" y="-200%" width="400%" height="400%" filterUnits="objectBoundingBox" color-interpolation-filters="sRGB"><feGaussianBlur xmlns="http://www.w3.org/2000/svg" in="SourceGraphic" stdDeviation="2.146804531419514"/><feOffset xmlns="http://www.w3.org/2000/svg" dx="0" dy="0" result="pf_100_offsetBlur"/><feFlood xmlns="http://www.w3.org/2000/svg" flood-color="#000000" flood-opacity="0.65"/><feComposite xmlns="http://www.w3.org/2000/svg" in2="pf_100_offsetBlur" operator="in" result="pf_100_dropShadow"/><feBlend xmlns="http://www.w3.org/2000/svg" in="SourceGraphic" in2="pf_100_dropShadow" mode="normal"/></filter></defs><g filter="url(#iB4uuHPPetcxRcHMVY5tDdnJC0WFl3re)"><path d=" M 4087 4113.884 L 4087 4113.884 C 4106.084 4105.862 4119.5 4086.985 4119.5 4065 C 4119.5 4035.749 4095.751 4012 4066.5 4012 C 4037.249 4012 4013.5 4035.749 4013.5 4065 C 4013.5 4086.985 4026.916 4105.862 4046 4113.884 L 4046 4230.5 C 4046 4241.814 4055.186 4251 4066.5 4251 L 4066.5 4251 C 4077.814 4251 4087 4241.814 4087 4230.5 L 4087 4113.884 Z  M 3941 4113.884 L 3941 4113.884 C 3960.084 4105.862 3973.5 4086.985 3973.5 4065 C 3973.5 4035.749 3949.751 4012 3920.5 4012 C 3891.249 4012 3867.5 4035.749 3867.5 4065 C 3867.5 4086.985 3880.916 4105.862 3900 4113.884 L 3900 4230.5 C 3900 4241.814 3909.186 4251 3920.5 4251 L 3920.5 4251 C 3931.814 4251 3941 4241.814 3941 4230.5 L 3941 4113.884 L 3941 4113.884 L 3941 4113.884 Z  M 3795 4113.884 L 3795 4113.884 C 3814.084 4105.862 3827.5 4086.985 3827.5 4065 C 3827.5 4035.749 3803.751 4012 3774.5 4012 C 3745.249 4012 3721.5 4035.749 3721.5 4065 C 3721.5 4086.985 3734.916 4105.862 3754 4113.884 L 3754 4230.5 C 3754 4241.814 3763.186 4251 3774.5 4251 L 3774.5 4251 C 3785.814 4251 3795 4241.814 3795 4230.5 L 3795 4113.884 L 3795 4113.884 L 3795 4113.884 L 3795 4113.884 L 3795 4113.884 Z  M 3649 4113.884 L 3649 4113.884 C 3668.084 4105.862 3681.5 4086.985 3681.5 4065 C 3681.5 4035.749 3657.751 4012 3628.5 4012 C 3599.249 4012 3575.5 4035.749 3575.5 4065 C 3575.5 4086.985 3588.916 4105.862 3608 4113.884 L 3608 4230.5 C 3608 4241.814 3617.186 4251 3628.5 4251 L 3628.5 4251 C 3639.814 4251 3649 4241.814 3649 4230.5 L 3649 4113.884 L 3649 4113.884 L 3649 4113.884 L 3649 4113.884 L 3649 4113.884 L 3649 4113.884 L 3649 4113.884 Z  M 3503 4113.884 L 3503 4113.884 C 3522.084 4105.862 3535.5 4086.985 3535.5 4065 C 3535.5 4035.749 3511.751 4012 3482.5 4012 C 3453.249 4012 3429.5 4035.749 3429.5 4065 C 3429.5 4086.985 3442.916 4105.862 3462 4113.884 L 3462 4230.5 C 3462 4241.814 3471.186 4251 3482.5 4251 L 3482.5 4251 C 3493.814 4251 3503 4241.814 3503 4230.5 L 3503 4113.884 L 3503 4113.884 L 3503 4113.884 L 3503 4113.884 L 3503 4113.884 L 3503 4113.884 L 3503 4113.884 L 3503 4113.884 L 3503 4113.884 Z  M 3357 4113.884 L 3357 4113.884 C 3376.084 4105.862 3389.5 4086.985 3389.5 4065 C 3389.5 4035.749 3365.751 4012 3336.5 4012 C 3307.249 4012 3283.5 4035.749 3283.5 4065 C 3283.5 4086.985 3296.916 4105.862 3316 4113.884 L 3316 4230.5 C 3316 4241.814 3325.186 4251 3336.5 4251 L 3336.5 4251 C 3347.814 4251 3357 4241.814 3357 4230.5 L 3357 4113.884 L 3357 4113.884 L 3357 4113.884 L 3357 4113.884 L 3357 4113.884 L 3357 4113.884 L 3357 4113.884 L 3357 4113.884 L 3357 4113.884 L 3357 4113.884 L 3357 4113.884 Z  M 3170 4113.884 C 3150.916 4105.862 3137.5 4086.985 3137.5 4065 C 3137.5 4035.749 3161.249 4012 3190.5 4012 C 3219.751 4012 3243.5 4035.749 3243.5 4065 C 3243.5 4086.985 3230.084 4105.862 3211 4113.884 L 3211 4230.5 C 3211 4241.814 3201.814 4251 3190.5 4251 L 3190.5 4251 C 3179.186 4251 3170 4241.814 3170 4230.5 L 3170 4113.884 L 3170 4113.884 L 3170 4113.884 L 3170 4113.884 L 3170 4113.884 L 3170 4113.884 L 3170 4113.884 L 3170 4113.884 L 3170 4113.884 L 3170 4113.884 L 3170 4113.884 L 3170 4113.884 Z " fill-rule="evenodd" fill="rgb(204,206,210)"/></g><defs><filter id="cUd2mcovsGUxL79x3ALQHZTrpyqKvMIb" x="-200%" y="-200%" width="400%" height="400%" filterUnits="objectBoundingBox" color-interpolation-filters="sRGB"><feGaussianBlur xmlns="http://www.w3.org/2000/svg" in="SourceGraphic" stdDeviation="2.146804531419514"/><feOffset xmlns="http://www.w3.org/2000/svg" dx="0" dy="0" result="pf_100_offsetBlur"/><feFlood xmlns="http://www.w3.org/2000/svg" flood-color="#000000" flood-opacity="0.65"/><feComposite xmlns="http://www.w3.org/2000/svg" in2="pf_100_offsetBlur" operator="in" result="pf_100_dropShadow"/><feBlend xmlns="http://www.w3.org/2000/svg" in="SourceGraphic" in2="pf_100_dropShadow" mode="normal"/></filter></defs><g filter="url(#cUd2mcovsGUxL79x3ALQHZTrpyqKvMIb)"><path d=" M 3170 2881.116 L 3170 2881.116 C 3150.916 2889.138 3137.5 2908.015 3137.5 2930 C 3137.5 2959.251 3161.249 2983 3190.5 2983 C 3219.751 2983 3243.5 2959.251 3243.5 2930 C 3243.5 2908.015 3230.084 2889.138 3211 2881.116 L 3211 2764.5 C 3211 2753.186 3201.814 2744 3190.5 2744 L 3190.5 2744 C 3179.186 2744 3170 2753.186 3170 2764.5 L 3170 2881.116 Z  M 3316 2881.116 L 3316 2881.116 C 3296.916 2889.138 3283.5 2908.015 3283.5 2930 C 3283.5 2959.251 3307.249 2983 3336.5 2983 C 3365.751 2983 3389.5 2959.251 3389.5 2930 C 3389.5 2908.015 3376.084 2889.138 3357 2881.116 L 3357 2764.5 C 3357 2753.186 3347.814 2744 3336.5 2744 L 3336.5 2744 C 3325.186 2744 3316 2753.186 3316 2764.5 L 3316 2881.116 L 3316 2881.116 L 3316 2881.116 Z  M 3462 2881.116 L 3462 2881.116 C 3442.916 2889.138 3429.5 2908.015 3429.5 2930 C 3429.5 2959.251 3453.249 2983 3482.5 2983 C 3511.751 2983 3535.5 2959.251 3535.5 2930 C 3535.5 2908.015 3522.084 2889.138 3503 2881.116 L 3503 2764.5 C 3503 2753.186 3493.814 2744 3482.5 2744 L 3482.5 2744 C 3471.186 2744 3462 2753.186 3462 2764.5 L 3462 2881.116 L 3462 2881.116 L 3462 2881.116 L 3462 2881.116 L 3462 2881.116 Z  M 3608 2881.116 L 3608 2881.116 C 3588.916 2889.138 3575.5 2908.015 3575.5 2930 C 3575.5 2959.251 3599.249 2983 3628.5 2983 C 3657.751 2983 3681.5 2959.251 3681.5 2930 C 3681.5 2908.015 3668.084 2889.138 3649 2881.116 L 3649 2764.5 C 3649 2753.186 3639.814 2744 3628.5 2744 L 3628.5 2744 C 3617.186 2744 3608 2753.186 3608 2764.5 L 3608 2881.116 L 3608 2881.116 L 3608 2881.116 L 3608 2881.116 L 3608 2881.116 L 3608 2881.116 L 3608 2881.116 Z  M 3754 2881.116 L 3754 2881.116 C 3734.916 2889.138 3721.5 2908.015 3721.5 2930 C 3721.5 2959.251 3745.249 2983 3774.5 2983 C 3803.751 2983 3827.5 2959.251 3827.5 2930 C 3827.5 2908.015 3814.084 2889.138 3795 2881.116 L 3795 2764.5 C 3795 2753.186 3785.814 2744 3774.5 2744 L 3774.5 2744 C 3763.186 2744 3754 2753.186 3754 2764.5 L 3754 2881.116 L 3754 2881.116 L 3754 2881.116 L 3754 2881.116 L 3754 2881.116 L 3754 2881.116 L 3754 2881.116 L 3754 2881.116 L 3754 2881.116 Z  M 3900 2881.116 L 3900 2881.116 C 3880.916 2889.138 3867.5 2908.015 3867.5 2930 C 3867.5 2959.251 3891.249 2983 3920.5 2983 C 3949.751 2983 3973.5 2959.251 3973.5 2930 C 3973.5 2908.015 3960.084 2889.138 3941 2881.116 L 3941 2764.5 C 3941 2753.186 3931.814 2744 3920.5 2744 L 3920.5 2744 C 3909.186 2744 3900 2753.186 3900 2764.5 L 3900 2881.116 L 3900 2881.116 L 3900 2881.116 L 3900 2881.116 L 3900 2881.116 L 3900 2881.116 L 3900 2881.116 L 3900 2881.116 L 3900 2881.116 L 3900 2881.116 L 3900 2881.116 Z  M 4087 2881.116 C 4106.084 2889.138 4119.5 2908.015 4119.5 2930 C 4119.5 2959.251 4095.751 2983 4066.5 2983 C 4037.249 2983 4013.5 2959.251 4013.5 2930 C 4013.5 2908.015 4026.916 2889.138 4046 2881.116 L 4046 2764.5 C 4046 2753.186 4055.186 2744 4066.5 2744 L 4066.5 2744 C 4077.814 2744 4087 2753.186 4087 2764.5 L 4087 2881.116 L 4087 2881.116 L 4087 2881.116 L 4087 2881.116 L 4087 2881.116 L 4087 2881.116 L 4087 2881.116 L 4087 2881.116 L 4087 2881.116 L 4087 2881.116 L 4087 2881.116 L 4087 2881.116 Z " fill-rule="evenodd" fill="rgb(204,206,210)"/></g></g><circle vector-effect="non-scaling-stroke" cx="3258.4999999999995" cy="3871.4999999999995" r="33.5" fill="rgb(204,206,210)"/><g transform="matrix(0.905,0,0,0.931,3225,3253.852)"><text transform="matrix(1,0,0,1,0,285.547)" style="font-family:'Earth';font-weight:400;font-size:400px;font-style:normal;fill:#e5e5e5;stroke:none;">RL</text></g><g transform="matrix(0.99,0,0,0.97,3241,3636)"><text transform="matrix(1,0,0,1,0,130.097)" style="font-family:'Sathu';font-weight:400;font-size:144px;font-style:normal;fill:#e5e5e5;stroke:none;">ROBOTICS</text></g></svg>